# xmcd CD database file
#
# Track frame offsets:
#	150
#	22786
#	25042
#	44563
#	66811
#
# Disc length: 1110 seconds
#
# Revision: 0
# Processed by: cddbd v1.5.2PL0 Copyright (c) Steve Scherf et al.
# Submitted via: CDex 1.70beta2
#
DISCID=34045405
DTITLE=The R.O.C. - Rollin With Strength
DYEAR=1992
DGENRE=Psychopathic
TTITLE0=Pay Attention To The Rhyme
TTITLE1=The Sickness
TTITLE2=Make You Dance
TTITLE3=Death Rap
TTITLE4=Who's Dangerous
EXTD=YEAR: 1992
EXTT0=
EXTT1=
EXTT2=
EXTT3=
EXTT4=
PLAYORDER=
